<svg xmlns="http://www.w3.org/2000/svg" width="1920" height="1080"><path d="M217,1252L69,1250L826,1271Z" fill="#3e8da1" stroke="#3e8da1" stroke-width="1.51"/><path d="M628,1241L217,1252L826,1271Z" fill="#368698" stroke="#368698" stroke-width="1.51"/><path d="M-39,-187L524,-181L1142,-177Z" fill="#a8ead7" stroke="#a8ead7" stroke-width="1.51"/><path d="M524,-181L791,-174L1142,-177Z" fill="#9dddc9" stroke="#9dddc9" stroke-width="1.51"/><path d="M1511,1229L1401,1251L1672,1237Z" fill="#1b5090" stroke="#1b5090" stroke-width="1.51"/><path d="M1142,-177L1364,-166L1800,-158Z" fill="#94b2cb" stroke="#94b2cb" stroke-width="1.51"/><path d="M1364,-166L1713,-149L1800,-158Z" fill="#90a6c9" stroke="#90a6c9" stroke-width="1.51"/><path d="M1804,1208L1672,1237L1952,1225Z" fill="#134787" stroke="#134787" stroke-width="1.51"/><path d="M1672,1237L1401,1251L2025,1231Z" fill="#16498a" stroke="#16498a" stroke-width="1.51"/><path d="M1952,1225L1672,1237L2025,1231Z" fill="#114484" stroke="#114484" stroke-width="1.51"/><path d="M2036,177L1951,282L2062,346Z" fill="#37889b" stroke="#37889b" stroke-width="1.51"/><path d="M2066,733L1942,736L2067,880Z" fill="#235d8e" stroke="#235d8e" stroke-width="1.51"/><path d="M1942,736L1895,864L2067,880Z" fill="#225b90" stroke="#225b90" stroke-width="1.51"/><path d="M2036,177L2062,346L2069,-33Z" fill="#3d8ca1" stroke="#3d8ca1" stroke-width="1.51"/><path d="M2038,52L2036,177L2069,-33Z" fill="#5790a8" stroke="#5790a8" stroke-width="1.51"/><path d="M1978,687L2066,733L2075,617Z" fill="#26678b" stroke="#26678b" stroke-width="1.51"/><path d="M2060,448L2029,547L2075,617Z" fill="#277588" stroke="#277588" stroke-width="1.51"/><path d="M2062,346L2060,448L2075,617Z" fill="#2a798c" stroke="#2a798c" stroke-width="1.51"/><path d="M2069,-33L2062,346L2075,617Z" fill="#348396" stroke="#348396" stroke-width="1.51"/><path d="M2045,1101L2025,1231L2084,1007Z" fill="#124585" stroke="#124585" stroke-width="1.51"/><path d="M2067,880L1969,1004L2084,1007Z" fill="#184c8d" stroke="#184c8d" stroke-width="1.51"/><path d="M1969,1004L2045,1101L2084,1007Z" fill="#164989" stroke="#164989" stroke-width="1.51"/><path d="M2075,617L2066,733L2084,1007Z" fill="#225b8c" stroke="#225b8c" stroke-width="1.51"/><path d="M2066,733L2067,880L2084,1007Z" fill="#1d528d" stroke="#1d528d" stroke-width="1.51"/><path d="M1964,444L2060,448L2062,346Z" fill="#2e7e91" stroke="#2e7e91" stroke-width="1.51"/><path d="M2057,-116L1933,-7L2069,-33Z" fill="#7295b2" stroke="#7295b2" stroke-width="1.51"/><path d="M2029,547L1978,687L2075,617Z" fill="#276e8a" stroke="#276e8a" stroke-width="1.51"/><path d="M1952,1225L2025,1231L2045,1101Z" fill="#104382" stroke="#104382" stroke-width="1.51"/><path d="M1961,-145L1933,-7L2057,-116Z" fill="#7a98b6" stroke="#7a98b6" stroke-width="1.51"/><path d="M1964,444L2029,547L2060,448Z" fill="#2b7a8d" stroke="#2b7a8d" stroke-width="1.51"/><path d="M1895,864L1969,1004L2067,880Z" fill="#1c5192" stroke="#1c5192" stroke-width="1.51"/><path d="M1933,-7L2038,52L2069,-33Z" fill="#6693ae" stroke="#6693ae" stroke-width="1.51"/><path d="M1950,185L2036,177L2038,52Z" fill="#458fa4" stroke="#458fa4" stroke-width="1.51"/><path d="M1978,687L1942,736L2066,733Z" fill="#26658e" stroke="#26658e" stroke-width="1.51"/><path d="M1950,185L1951,282L2036,177Z" fill="#3b8ca0" stroke="#3b8ca0" stroke-width="1.51"/><path d="M1915,69L1950,185L2038,52Z" fill="#4f92a8" stroke="#4f92a8" stroke-width="1.51"/><path d="M1951,282L1964,444L2062,346Z" fill="#338396" stroke="#338396" stroke-width="1.51"/><path d="M1902,1138L1952,1225L2045,1101Z" fill="#124586" stroke="#124586" stroke-width="1.51"/><path d="M1919,554L1978,687L2029,547Z" fill="#29728b" stroke="#29728b" stroke-width="1.51"/><path d="M1969,1004L1902,1138L2045,1101Z" fill="#154989" stroke="#154989" stroke-width="1.51"/><path d="M1964,444L1919,554L2029,547Z" fill="#2a798c" stroke="#2a798c" stroke-width="1.51"/><path d="M1933,-7L1915,69L2038,52Z" fill="#5f94ae" stroke="#5f94ae" stroke-width="1.51"/><path d="M1120,1225L915,1270L1401,1251Z" fill="#26698a" stroke="#26698a" stroke-width="1.51"/><path d="M1364,-166L1605,-123L1713,-149Z" fill="#8fa8ca" stroke="#8fa8ca" stroke-width="1.51"/><path d="M1796,-53L1933,-7L1961,-145Z" fill="#789ab8" stroke="#789ab8" stroke-width="1.51"/><path d="M1951,282L1846,382L1964,444Z" fill="#338598" stroke="#338598" stroke-width="1.51"/><path d="M1895,864L1827,981L1969,1004Z" fill="#1d5192" stroke="#1d5192" stroke-width="1.51"/><path d="M1838,1085L1902,1138L1969,1004Z" fill="#184b8c" stroke="#184b8c" stroke-width="1.51"/><path d="M1919,554L1834,571L1978,687Z" fill="#2a738e" stroke="#2a738e" stroke-width="1.51"/><path d="M1834,571L1848,736L1978,687Z" fill="#296e90" stroke="#296e90" stroke-width="1.51"/><path d="M1848,736L1942,736L1978,687Z" fill="#276790" stroke="#276790" stroke-width="1.51"/><path d="M1800,-158L1796,-53L1961,-145Z" fill="#839dbd" stroke="#839dbd" stroke-width="1.51"/><path d="M1827,981L1838,1085L1969,1004Z" fill="#1b4e8f" stroke="#1b4e8f" stroke-width="1.51"/><path d="M1848,736L1895,864L1942,736Z" fill="#266292" stroke="#266292" stroke-width="1.51"/><path d="M1846,382L1919,554L1964,444Z" fill="#2e7f92" stroke="#2e7f92" stroke-width="1.51"/><path d="M1950,185L1783,155L1951,282Z" fill="#3c8fa3" stroke="#3c8fa3" stroke-width="1.51"/><path d="M1846,382L1834,571L1919,554Z" fill="#2c7e90" stroke="#2c7e90" stroke-width="1.51"/><path d="M1915,69L1783,155L1950,185Z" fill="#4894a9" stroke="#4894a9" stroke-width="1.51"/><path d="M1783,155L1781,341L1951,282Z" fill="#3a8ea1" stroke="#3a8ea1" stroke-width="1.51"/><path d="M1902,1138L1804,1208L1952,1225Z" fill="#134686" stroke="#134686" stroke-width="1.51"/><path d="M1781,341L1846,382L1951,282Z" fill="#36899c" stroke="#36899c" stroke-width="1.51"/><path d="M1834,571L1784,614L1848,736Z" fill="#2b7392" stroke="#2b7392" stroke-width="1.51"/><path d="M1848,736L1824,843L1895,864Z" fill="#255f94" stroke="#255f94" stroke-width="1.51"/><path d="M1791,88L1783,155L1915,69Z" fill="#5296ad" stroke="#5296ad" stroke-width="1.51"/><path d="M1796,-53L1915,69L1933,-7Z" fill="#6898b3" stroke="#6898b3" stroke-width="1.51"/><path d="M1796,-53L1791,88L1915,69Z" fill="#6399b2" stroke="#6399b2" stroke-width="1.51"/><path d="M1824,843L1827,981L1895,864Z" fill="#215796" stroke="#215796" stroke-width="1.51"/><path d="M1838,1085L1804,1208L1902,1138Z" fill="#164a8a" stroke="#164a8a" stroke-width="1.51"/><path d="M1691,447L1718,550L1834,571Z" fill="#2e8093" stroke="#2e8093" stroke-width="1.51"/><path d="M1691,447L1834,571L1846,382Z" fill="#308395" stroke="#308395" stroke-width="1.51"/><path d="M449,1231L217,1252L628,1241Z" fill="#3a8b9f" stroke="#3a8b9f" stroke-width="1.51"/><path d="M1364,-166L1486,-119L1605,-123Z" fill="#8eadc9" stroke="#8eadc9" stroke-width="1.51"/><path d="M1674,238L1781,341L1783,155Z" fill="#3d92a5" stroke="#3d92a5" stroke-width="1.51"/><path d="M1676,1014L1736,1123L1827,981Z" fill="#1e5293" stroke="#1e5293" stroke-width="1.51"/><path d="M1824,843L1688,849L1827,981Z" fill="#235998" stroke="#235998" stroke-width="1.51"/><path d="M1827,981L1736,1123L1838,1085Z" fill="#1b4f90" stroke="#1b4f90" stroke-width="1.51"/><path d="M1736,1123L1804,1208L1838,1085Z" fill="#184c8c" stroke="#184c8c" stroke-width="1.51"/><path d="M1781,341L1691,447L1846,382Z" fill="#34889b" stroke="#34889b" stroke-width="1.51"/><path d="M1702,726L1824,843L1848,736Z" fill="#296695" stroke="#296695" stroke-width="1.51"/><path d="M1784,614L1702,726L1848,736Z" fill="#2b6e94" stroke="#2b6e94" stroke-width="1.51"/><path d="M1674,238L1711,331L1781,341Z" fill="#3a8fa3" stroke="#3a8fa3" stroke-width="1.51"/><path d="M1724,78L1791,88L1796,-53Z" fill="#639bb4" stroke="#639bb4" stroke-width="1.51"/><path d="M1702,726L1688,849L1824,843Z" fill="#286498" stroke="#286498" stroke-width="1.51"/><path d="M1688,849L1676,1014L1827,981Z" fill="#225798" stroke="#225798" stroke-width="1.51"/><path d="M1718,550L1784,614L1834,571Z" fill="#2c7a91" stroke="#2c7a91" stroke-width="1.51"/><path d="M1713,-149L1796,-53L1800,-158Z" fill="#85a0c0" stroke="#85a0c0" stroke-width="1.51"/><path d="M1711,331L1691,447L1781,341Z" fill="#378b9e" stroke="#378b9e" stroke-width="1.51"/><path d="M1682,697L1702,726L1784,614Z" fill="#2c7296" stroke="#2c7296" stroke-width="1.51"/><path d="M1704,-68L1724,78L1796,-53Z" fill="#709eb9" stroke="#709eb9" stroke-width="1.51"/><path d="M1713,-149L1704,-68L1796,-53Z" fill="#80a0bf" stroke="#80a0bf" stroke-width="1.51"/><path d="M1736,1123L1672,1237L1804,1208Z" fill="#174b8b" stroke="#174b8b" stroke-width="1.51"/><path d="M1724,78L1783,155L1791,88Z" fill="#5299af" stroke="#5299af" stroke-width="1.51"/><path d="M1718,550L1682,697L1784,614Z" fill="#2d7895" stroke="#2d7895" stroke-width="1.51"/><path d="M1724,78L1674,238L1783,155Z" fill="#4599ac" stroke="#4599ac" stroke-width="1.51"/><path d="M-39,-187L351,-160L524,-181Z" fill="#bbf4e3" stroke="#bbf4e3" stroke-width="1.51"/><path d="M1289,1222L1120,1225L1401,1251Z" fill="#25618d" stroke="#25618d" stroke-width="1.51"/><path d="M1625,978L1676,1014L1688,849Z" fill="#23599a" stroke="#23599a" stroke-width="1.51"/><path d="M1556,658L1682,697L1718,550Z" fill="#2e7997" stroke="#2e7997" stroke-width="1.51"/><path d="M1616,116L1674,238L1724,78Z" fill="#4a9bb0" stroke="#4a9bb0" stroke-width="1.51"/><path d="M1704,-68L1604,-41L1724,78Z" fill="#70a0bb" stroke="#70a0bb" stroke-width="1.51"/><path d="M1636,1207L1672,1237L1736,1123Z" fill="#194d8d" stroke="#194d8d" stroke-width="1.51"/><path d="M1676,1014L1604,1092L1736,1123Z" fill="#1e5294" stroke="#1e5294" stroke-width="1.51"/><path d="M1604,1092L1636,1207L1736,1123Z" fill="#1b5090" stroke="#1b5090" stroke-width="1.51"/><path d="M1570,758L1688,849L1702,726Z" fill="#2b699a" stroke="#2b699a" stroke-width="1.51"/><path d="M1602,454L1691,447L1711,331Z" fill="#368a9d" stroke="#368a9d" stroke-width="1.51"/><path d="M1605,-123L1704,-68L1713,-149Z" fill="#85a3c3" stroke="#85a3c3" stroke-width="1.51"/><path d="M1691,447L1602,454L1718,550Z" fill="#328699" stroke="#328699" stroke-width="1.51"/><path d="M1604,-41L1616,116L1724,78Z" fill="#629fb7" stroke="#629fb7" stroke-width="1.51"/><path d="M1570,319L1602,454L1711,331Z" fill="#398fa2" stroke="#398fa2" stroke-width="1.51"/><path d="M1548,507L1556,658L1718,550Z" fill="#308197" stroke="#308197" stroke-width="1.51"/><path d="M1602,454L1548,507L1718,550Z" fill="#318699" stroke="#318699" stroke-width="1.51"/><path d="M1674,238L1570,319L1711,331Z" fill="#3c92a6" stroke="#3c92a6" stroke-width="1.51"/><path d="M1552,921L1625,978L1688,849Z" fill="#255c9e" stroke="#255c9e" stroke-width="1.51"/><path d="M1682,697L1570,758L1702,726Z" fill="#2d6f99" stroke="#2d6f99" stroke-width="1.51"/><path d="M1605,-123L1604,-41L1704,-68Z" fill="#7fa3c2" stroke="#7fa3c2" stroke-width="1.51"/><path d="M1636,1207L1511,1229L1672,1237Z" fill="#194d8e" stroke="#194d8e" stroke-width="1.51"/><path d="M1616,116L1564,207L1674,238Z" fill="#429bae" stroke="#429bae" stroke-width="1.51"/><path d="M1570,758L1552,921L1688,849Z" fill="#2a649d" stroke="#2a649d" stroke-width="1.51"/><path d="M1556,658L1570,758L1682,697Z" fill="#2e739a" stroke="#2e739a" stroke-width="1.51"/><path d="M1564,207L1570,319L1674,238Z" fill="#3f97aa" stroke="#3f97aa" stroke-width="1.51"/><path d="M1625,978L1604,1092L1676,1014Z" fill="#215697" stroke="#215697" stroke-width="1.51"/><path d="M1604,-41L1452,65L1616,116Z" fill="#65a3bb" stroke="#65a3bb" stroke-width="1.51"/><path d="M1501,982L1604,1092L1625,978Z" fill="#22589a" stroke="#22589a" stroke-width="1.51"/><path d="M1604,1092L1514,1105L1636,1207Z" fill="#1e5294" stroke="#1e5294" stroke-width="1.51"/><path d="M1514,1105L1511,1229L1636,1207Z" fill="#1d5192" stroke="#1d5192" stroke-width="1.51"/><path d="M1517,913L1552,921L1570,758Z" fill="#2964a0" stroke="#2964a0" stroke-width="1.51"/><path d="M1570,319L1497,333L1602,454Z" fill="#3a91a4" stroke="#3a91a4" stroke-width="1.51"/><path d="M1501,982L1514,1105L1604,1092Z" fill="#225899" stroke="#225899" stroke-width="1.51"/><path d="M1455,-13L1452,65L1604,-41Z" fill="#70a7be" stroke="#70a7be" stroke-width="1.51"/><path d="M1552,921L1501,982L1625,978Z" fill="#255b9d" stroke="#255b9d" stroke-width="1.51"/><path d="M1486,-119L1604,-41L1605,-123Z" fill="#84a7c6" stroke="#84a7c6" stroke-width="1.51"/><path d="M1452,65L1564,207L1616,116Z" fill="#50a0b5" stroke="#50a0b5" stroke-width="1.51"/><path d="M1491,751L1517,913L1570,758Z" fill="#2d6b9f" stroke="#2d6b9f" stroke-width="1.51"/><path d="M1433,389L1548,507L1602,454Z" fill="#368d9f" stroke="#368d9f" stroke-width="1.51"/><path d="M1497,333L1433,389L1602,454Z" fill="#3992a3" stroke="#3992a3" stroke-width="1.51"/><path d="M1486,-119L1455,-13L1604,-41Z" fill="#7da8c4" stroke="#7da8c4" stroke-width="1.51"/><path d="M1452,65L1486,219L1564,207Z" fill="#46a2b2" stroke="#46a2b2" stroke-width="1.51"/><path d="M1433,389L1442,509L1548,507Z" fill="#34909d" stroke="#34909d" stroke-width="1.51"/><path d="M1548,507L1442,509L1556,658Z" fill="#318799" stroke="#318799" stroke-width="1.51"/><path d="M1442,509L1435,673L1556,658Z" fill="#31839a" stroke="#31839a" stroke-width="1.51"/><path d="M1556,658L1491,751L1570,758Z" fill="#2f739d" stroke="#2f739d" stroke-width="1.51"/><path d="M1564,207L1486,219L1570,319Z" fill="#419aad" stroke="#419aad" stroke-width="1.51"/><path d="M1486,219L1497,333L1570,319Z" fill="#3e98aa" stroke="#3e98aa" stroke-width="1.51"/><path d="M1517,913L1501,982L1552,921Z" fill="#275f9f" stroke="#275f9f" stroke-width="1.51"/><path d="M1435,673L1491,751L1556,658Z" fill="#30799c" stroke="#30799c" stroke-width="1.51"/><path d="M1452,65L1376,90L1486,219Z" fill="#52a7b5" stroke="#52a7b5" stroke-width="1.51"/><path d="M1486,219L1398,237L1497,333Z" fill="#409eab" stroke="#409eab" stroke-width="1.51"/><path d="M1386,959L1357,1097L1501,982Z" fill="#28629b" stroke="#28629b" stroke-width="1.51"/><path d="M1501,982L1357,1097L1514,1105Z" fill="#255d98" stroke="#255d98" stroke-width="1.51"/><path d="M1401,1251L1511,1229L1514,1105Z" fill="#1f5591" stroke="#1f5591" stroke-width="1.51"/><path d="M1357,1097L1401,1251L1514,1105Z" fill="#235b93" stroke="#235b93" stroke-width="1.51"/><path d="M1491,751L1342,809L1517,913Z" fill="#2e6e9e" stroke="#2e6e9e" stroke-width="1.51"/><path d="M1342,809L1386,959L1517,913Z" fill="#2c699f" stroke="#2c699f" stroke-width="1.51"/><path d="M1386,959L1501,982L1517,913Z" fill="#28619e" stroke="#28619e" stroke-width="1.51"/><path d="M1376,90L1398,237L1486,219Z" fill="#44a6b0" stroke="#44a6b0" stroke-width="1.51"/><path d="M1373,-61L1455,-13L1486,-119Z" fill="#7faec3" stroke="#7faec3" stroke-width="1.51"/><path d="M1342,809L1324,904L1386,959Z" fill="#2e6e9e" stroke="#2e6e9e" stroke-width="1.51"/><path d="M1380,511L1435,673L1442,509Z" fill="#308d98" stroke="#308d98" stroke-width="1.51"/><path d="M1355,352L1433,389L1497,333Z" fill="#3a9ba3" stroke="#3a9ba3" stroke-width="1.51"/><path d="M1398,237L1355,352L1497,333Z" fill="#3d9ea7" stroke="#3d9ea7" stroke-width="1.51"/><path d="M1435,673L1342,809L1491,751Z" fill="#30799c" stroke="#30799c" stroke-width="1.51"/><path d="M1380,511L1350,660L1435,673Z" fill="#318998" stroke="#318998" stroke-width="1.51"/><path d="M1364,-166L1373,-61L1486,-119Z" fill="#8ab2c7" stroke="#8ab2c7" stroke-width="1.51"/><path d="M1352,383L1380,511L1433,389Z" fill="#36989e" stroke="#36989e" stroke-width="1.51"/><path d="M1350,660L1342,809L1435,673Z" fill="#317f9b" stroke="#317f9b" stroke-width="1.51"/><path d="M1433,389L1380,511L1442,509Z" fill="#33939c" stroke="#33939c" stroke-width="1.51"/><path d="M1376,90L1452,65L1455,-13Z" fill="#66abba" stroke="#66abba" stroke-width="1.51"/><path d="M1373,-61L1376,90L1455,-13Z" fill="#70aebd" stroke="#70aebd" stroke-width="1.51"/><path d="M1357,1097L1289,1222L1401,1251Z" fill="#245e90" stroke="#245e90" stroke-width="1.51"/><path d="M1355,352L1352,383L1433,389Z" fill="#389ca2" stroke="#389ca2" stroke-width="1.51"/><path d="M1284,674L1342,809L1350,660Z" fill="#31839a" stroke="#31839a" stroke-width="1.51"/><path d="M1142,-177L1280,-121L1364,-166Z" fill="#93bfc7" stroke="#93bfc7" stroke-width="1.51"/><path d="M1373,-61L1258,-31L1376,90Z" fill="#71b4bc" stroke="#71b4bc" stroke-width="1.51"/><path d="M1258,-31L1250,48L1376,90Z" fill="#68b5b8" stroke="#68b5b8" stroke-width="1.51"/><path d="M1275,501L1350,660L1380,511Z" fill="#2e9396" stroke="#2e9396" stroke-width="1.51"/><path d="M1352,383L1283,464L1380,511Z" fill="#339b9c" stroke="#339b9c" stroke-width="1.51"/><path d="M1216,999L1357,1097L1386,959Z" fill="#2a6999" stroke="#2a6999" stroke-width="1.51"/><path d="M1376,90L1228,226L1398,237Z" fill="#43acae" stroke="#43acae" stroke-width="1.51"/><path d="M1228,226L1355,352L1398,237Z" fill="#3da7a7" stroke="#3da7a7" stroke-width="1.51"/><path d="M1228,226L1240,337L1355,352Z" fill="#3ba9a5" stroke="#3ba9a5" stroke-width="1.51"/><path d="M1364,-166L1280,-121L1373,-61Z" fill="#8bb7c5" stroke="#8bb7c5" stroke-width="1.51"/><path d="M1275,501L1284,674L1350,660Z" fill="#308f97" stroke="#308f97" stroke-width="1.51"/><path d="M1246,1137L1289,1222L1357,1097Z" fill="#276392" stroke="#276392" stroke-width="1.51"/><path d="M1250,48L1228,226L1376,90Z" fill="#51b3b2" stroke="#51b3b2" stroke-width="1.51"/><path d="M1324,904L1216,999L1386,959Z" fill="#2d6c9c" stroke="#2d6c9c" stroke-width="1.51"/><path d="M1283,464L1275,501L1380,511Z" fill="#319a98" stroke="#319a98" stroke-width="1.51"/><path d="M1281,869L1324,904L1342,809Z" fill="#2f739d" stroke="#2f739d" stroke-width="1.51"/><path d="M1280,-121L1258,-31L1373,-61Z" fill="#82b9c1" stroke="#82b9c1" stroke-width="1.51"/><path d="M1284,674L1231,794L1342,809Z" fill="#31819b" stroke="#31819b" stroke-width="1.51"/><path d="M1216,999L1246,1137L1357,1097Z" fill="#2a6995" stroke="#2a6995" stroke-width="1.51"/><path d="M1240,337L1352,383L1355,352Z" fill="#39a2a2" stroke="#39a2a2" stroke-width="1.51"/><path d="M1240,337L1283,464L1352,383Z" fill="#36a29e" stroke="#36a29e" stroke-width="1.51"/><path d="M1231,794L1281,869L1342,809Z" fill="#307a9c" stroke="#307a9c" stroke-width="1.51"/><path d="M1281,869L1216,999L1324,904Z" fill="#2e709d" stroke="#2e709d" stroke-width="1.51"/><path d="M1216,999L1173,1024L1246,1137Z" fill="#2b6e95" stroke="#2b6e95" stroke-width="1.51"/><path d="M1155,190L1228,226L1250,48Z" fill="#46b7ae" stroke="#46b7ae" stroke-width="1.51"/><path d="M1096,559L1147,674L1275,501Z" fill="#2b9d94" stroke="#2b9d94" stroke-width="1.51"/><path d="M1160,882L1216,999L1281,869Z" fill="#2f759d" stroke="#2f759d" stroke-width="1.51"/><path d="M1240,337L1149,424L1283,464Z" fill="#33a69d" stroke="#33a69d" stroke-width="1.51"/><path d="M1275,501L1147,674L1284,674Z" fill="#2e9496" stroke="#2e9496" stroke-width="1.51"/><path d="M1147,674L1231,794L1284,674Z" fill="#308a98" stroke="#308a98" stroke-width="1.51"/><path d="M1246,1137L1120,1225L1289,1222Z" fill="#27678e" stroke="#27678e" stroke-width="1.51"/><path d="M1142,-177L1258,-31L1280,-121Z" fill="#89c0c3" stroke="#89c0c3" stroke-width="1.51"/><path d="M1149,424L1275,501L1283,464Z" fill="#30a199" stroke="#30a199" stroke-width="1.51"/><path d="M1231,794L1160,882L1281,869Z" fill="#307b9b" stroke="#307b9b" stroke-width="1.51"/><path d="M1154,1134L1120,1225L1246,1137Z" fill="#296b8f" stroke="#296b8f" stroke-width="1.51"/><path d="M1105,123L1155,190L1250,48Z" fill="#50bcb0" stroke="#50bcb0" stroke-width="1.51"/><path d="M1149,424L1096,559L1275,501Z" fill="#2ca396" stroke="#2ca396" stroke-width="1.51"/><path d="M1147,674L1116,758L1231,794Z" fill="#308b98" stroke="#308b98" stroke-width="1.51"/><path d="M1228,226L1151,304L1240,337Z" fill="#3aafa5" stroke="#3aafa5" stroke-width="1.51"/><path d="M1173,1024L1154,1134L1246,1137Z" fill="#2b6d93" stroke="#2b6d93" stroke-width="1.51"/><path d="M1092,-7L1250,48L1258,-31Z" fill="#70beba" stroke="#70beba" stroke-width="1.51"/><path d="M1142,-177L1092,-7L1258,-31Z" fill="#82c4be" stroke="#82c4be" stroke-width="1.51"/><path d="M1092,-7L1105,123L1250,48Z" fill="#63c0b5" stroke="#63c0b5" stroke-width="1.51"/><path d="M1151,304L1149,424L1240,337Z" fill="#35ada0" stroke="#35ada0" stroke-width="1.51"/><path d="M1160,882L1173,1024L1216,999Z" fill="#2e7599" stroke="#2e7599" stroke-width="1.51"/><path d="M1155,190L1151,304L1228,226Z" fill="#3cb4a8" stroke="#3cb4a8" stroke-width="1.51"/><path d="M1116,758L1160,882L1231,794Z" fill="#31839a" stroke="#31839a" stroke-width="1.51"/><path d="M1053,-120L1092,-7L1142,-177Z" fill="#88c9c0" stroke="#88c9c0" stroke-width="1.51"/><path d="M791,-174L1053,-120L1142,-177Z" fill="#94d4c2" stroke="#94d4c2" stroke-width="1.51"/><path d="M791,-174L891,-111L1053,-120Z" fill="#91d7c2" stroke="#91d7c2" stroke-width="1.51"/><path d="M1092,-7L1058,98L1105,123Z" fill="#5dc4b2" stroke="#5dc4b2" stroke-width="1.51"/><path d="M1011,1208L915,1270L1120,1225Z" fill="#287289" stroke="#287289" stroke-width="1.51"/><path d="M1058,517L1096,559L1149,424Z" fill="#28a894" stroke="#28a894" stroke-width="1.51"/><path d="M1060,394L1149,424L1151,304Z" fill="#32af9d" stroke="#32af9d" stroke-width="1.51"/><path d="M1012,199L1151,304L1155,190Z" fill="#3abaa6" stroke="#3abaa6" stroke-width="1.51"/><path d="M1116,758L1039,799L1160,882Z" fill="#318799" stroke="#318799" stroke-width="1.51"/><path d="M1022,909L974,960L1173,1024Z" fill="#2f7e98" stroke="#2f7e98" stroke-width="1.51"/><path d="M974,960L988,1092L1173,1024Z" fill="#2e7b94" stroke="#2e7b94" stroke-width="1.51"/><path d="M988,1092L1154,1134L1173,1024Z" fill="#2c7492" stroke="#2c7492" stroke-width="1.51"/><path d="M1160,882L1022,909L1173,1024Z" fill="#2f7b9a" stroke="#2f7b9a" stroke-width="1.51"/><path d="M1039,799L1022,909L1160,882Z" fill="#318599" stroke="#318599" stroke-width="1.51"/><path d="M1060,394L1058,517L1149,424Z" fill="#2cad98" stroke="#2cad98" stroke-width="1.51"/><path d="M1012,199L991,315L1151,304Z" fill="#35bba2" stroke="#35bba2" stroke-width="1.51"/><path d="M1011,1208L1120,1225L1154,1134Z" fill="#296f8d" stroke="#296f8d" stroke-width="1.51"/><path d="M1105,123L1012,199L1155,190Z" fill="#3dbfaa" stroke="#3dbfaa" stroke-width="1.51"/><path d="M988,1092L1011,1208L1154,1134Z" fill="#2a748e" stroke="#2a748e" stroke-width="1.51"/><path d="M1096,559L974,641L1147,674Z" fill="#2a9e94" stroke="#2a9e94" stroke-width="1.51"/><path d="M991,315L1060,394L1151,304Z" fill="#32b69e" stroke="#32b69e" stroke-width="1.51"/><path d="M974,641L1116,758L1147,674Z" fill="#2e9795" stroke="#2e9795" stroke-width="1.51"/><path d="M974,641L1039,799L1116,758Z" fill="#2e9596" stroke="#2e9596" stroke-width="1.51"/><path d="M1058,98L1012,199L1105,123Z" fill="#46c3ac" stroke="#46c3ac" stroke-width="1.51"/><path d="M994,2L1058,98L1092,-7Z" fill="#67c8b4" stroke="#67c8b4" stroke-width="1.51"/><path d="M1053,-120L994,2L1092,-7Z" fill="#7accba" stroke="#7accba" stroke-width="1.51"/><path d="M1058,517L974,641L1096,559Z" fill="#25a692" stroke="#25a692" stroke-width="1.51"/><path d="M974,641L893,797L1039,799Z" fill="#2d9995" stroke="#2d9995" stroke-width="1.51"/><path d="M891,-111L994,2L1053,-120Z" fill="#82d2bc" stroke="#82d2bc" stroke-width="1.51"/><path d="M901,499L974,641L1058,517Z" fill="#1ead90" stroke="#1ead90" stroke-width="1.51"/><path d="M931,112L1012,199L1058,98Z" fill="#46c8ac" stroke="#46c8ac" stroke-width="1.51"/><path d="M994,2L931,112L1058,98Z" fill="#5ccbb0" stroke="#5ccbb0" stroke-width="1.51"/><path d="M991,315L890,461L1060,394Z" fill="#29b899" stroke="#29b899" stroke-width="1.51"/><path d="M901,499L1058,517L1060,394Z" fill="#25b195" stroke="#25b195" stroke-width="1.51"/><path d="M890,461L901,499L1060,394Z" fill="#23b695" stroke="#23b695" stroke-width="1.51"/><path d="M988,1092L936,1107L1011,1208Z" fill="#2a7a8e" stroke="#2a7a8e" stroke-width="1.51"/><path d="M893,797L1022,909L1039,799Z" fill="#2f8e98" stroke="#2f8e98" stroke-width="1.51"/><path d="M901,499L895,624L974,641Z" fill="#23ac92" stroke="#23ac92" stroke-width="1.51"/><path d="M974,960L902,1014L988,1092Z" fill="#2e8194" stroke="#2e8194" stroke-width="1.51"/><path d="M891,-111L889,-27L994,2Z" fill="#7bd4ba" stroke="#7bd4ba" stroke-width="1.51"/><path d="M922,294L991,315L1012,199Z" fill="#32c1a2" stroke="#32c1a2" stroke-width="1.51"/><path d="M892,218L922,294L1012,199Z" fill="#34c5a4" stroke="#34c5a4" stroke-width="1.51"/><path d="M867,927L974,960L1022,909Z" fill="#318698" stroke="#318698" stroke-width="1.51"/><path d="M893,797L867,927L1022,909Z" fill="#318c9a" stroke="#318c9a" stroke-width="1.51"/><path d="M922,294L890,461L991,315Z" fill="#2cbd9c" stroke="#2cbd9c" stroke-width="1.51"/><path d="M936,1107L915,1270L1011,1208Z" fill="#29798b" stroke="#29798b" stroke-width="1.51"/><path d="M931,112L892,218L1012,199Z" fill="#38c9a8" stroke="#38c9a8" stroke-width="1.51"/><path d="M826,685L893,797L895,624Z" fill="#2ea298" stroke="#2ea298" stroke-width="1.51"/><path d="M895,624L893,797L974,641Z" fill="#2ba195" stroke="#2ba195" stroke-width="1.51"/><path d="M902,1014L936,1107L988,1092Z" fill="#2c8092" stroke="#2c8092" stroke-width="1.51"/><path d="M889,-27L931,112L994,2Z" fill="#68d0b4" stroke="#68d0b4" stroke-width="1.51"/><path d="M819,1116L915,1270L936,1107Z" fill="#2c7d8f" stroke="#2c7d8f" stroke-width="1.51"/><path d="M867,927L902,1014L974,960Z" fill="#308698" stroke="#308698" stroke-width="1.51"/><path d="M828,305L797,417L890,461Z" fill="#2ebf9e" stroke="#2ebf9e" stroke-width="1.51"/><path d="M819,1116L826,1271L915,1270Z" fill="#2c7b8e" stroke="#2c7b8e" stroke-width="1.51"/><path d="M828,305L890,461L922,294Z" fill="#2fc09f" stroke="#2fc09f" stroke-width="1.51"/><path d="M889,-27L751,58L931,112Z" fill="#65d3b6" stroke="#65d3b6" stroke-width="1.51"/><path d="M813,173L892,218L931,112Z" fill="#3ccdac" stroke="#3ccdac" stroke-width="1.51"/><path d="M902,1014L819,1116L936,1107Z" fill="#2f8194" stroke="#2f8194" stroke-width="1.51"/><path d="M827,917L867,927L893,797Z" fill="#348f9c" stroke="#348f9c" stroke-width="1.51"/><path d="M791,530L895,624L901,499Z" fill="#22b393" stroke="#22b393" stroke-width="1.51"/><path d="M751,58L813,173L931,112Z" fill="#52d1b2" stroke="#52d1b2" stroke-width="1.51"/><path d="M892,218L828,305L922,294Z" fill="#34c5a4" stroke="#34c5a4" stroke-width="1.51"/><path d="M756,5L751,58L889,-27Z" fill="#71d7bc" stroke="#71d7bc" stroke-width="1.51"/><path d="M771,790L827,917L893,797Z" fill="#34959d" stroke="#34959d" stroke-width="1.51"/><path d="M826,685L771,790L893,797Z" fill="#329d9a" stroke="#329d9a" stroke-width="1.51"/><path d="M867,927L772,1024L902,1014Z" fill="#33889a" stroke="#33889a" stroke-width="1.51"/><path d="M772,1024L819,1116L902,1014Z" fill="#318597" stroke="#318597" stroke-width="1.51"/><path d="M890,461L791,530L901,499Z" fill="#25b796" stroke="#25b796" stroke-width="1.51"/><path d="M827,917L772,1024L867,927Z" fill="#348a9d" stroke="#348a9d" stroke-width="1.51"/><path d="M791,-174L713,-76L891,-111Z" fill="#92dcc6" stroke="#92dcc6" stroke-width="1.51"/><path d="M756,5L889,-27L891,-111Z" fill="#7ed7be" stroke="#7ed7be" stroke-width="1.51"/><path d="M713,-76L756,5L891,-111Z" fill="#84dac2" stroke="#84dac2" stroke-width="1.51"/><path d="M813,173L828,305L892,218Z" fill="#39caa9" stroke="#39caa9" stroke-width="1.51"/><path d="M791,530L826,685L895,624Z" fill="#2aad97" stroke="#2aad97" stroke-width="1.51"/><path d="M797,417L791,530L890,461Z" fill="#29ba99" stroke="#29ba99" stroke-width="1.51"/><path d="M524,-181L645,-133L791,-174Z" fill="#a0e4d0" stroke="#a0e4d0" stroke-width="1.51"/><path d="M791,530L713,582L826,685Z" fill="#2bb199" stroke="#2bb199" stroke-width="1.51"/><path d="M637,205L690,317L813,173Z" fill="#3ed0af" stroke="#3ed0af" stroke-width="1.51"/><path d="M751,58L699,111L813,173Z" fill="#55d4b5" stroke="#55d4b5" stroke-width="1.51"/><path d="M691,1082L628,1241L819,1116Z" fill="#338598" stroke="#338598" stroke-width="1.51"/><path d="M819,1116L628,1241L826,1271Z" fill="#308093" stroke="#308093" stroke-width="1.51"/><path d="M689,729L771,790L826,685Z" fill="#34a39d" stroke="#34a39d" stroke-width="1.51"/><path d="M713,582L689,729L826,685Z" fill="#31ab9c" stroke="#31ab9c" stroke-width="1.51"/><path d="M699,965L772,1024L827,917Z" fill="#368c9f" stroke="#368c9f" stroke-width="1.51"/><path d="M771,790L699,965L827,917Z" fill="#3892a1" stroke="#3892a1" stroke-width="1.51"/><path d="M813,173L690,317L828,305Z" fill="#3acaa9" stroke="#3acaa9" stroke-width="1.51"/><path d="M690,317L797,417L828,305Z" fill="#34c5a4" stroke="#34c5a4" stroke-width="1.51"/><path d="M639,849L699,965L771,790Z" fill="#3a97a3" stroke="#3a97a3" stroke-width="1.51"/><path d="M772,1024L691,1082L819,1116Z" fill="#338699" stroke="#338699" stroke-width="1.51"/><path d="M699,111L637,205L813,173Z" fill="#44d4b3" stroke="#44d4b3" stroke-width="1.51"/><path d="M630,436L713,582L791,530Z" fill="#2bbc9b" stroke="#2bbc9b" stroke-width="1.51"/><path d="M630,436L791,530L797,417Z" fill="#2ebf9e" stroke="#2ebf9e" stroke-width="1.51"/><path d="M690,317L630,436L797,417Z" fill="#34c5a4" stroke="#34c5a4" stroke-width="1.51"/><path d="M645,-133L713,-76L791,-174Z" fill="#96e0ca" stroke="#96e0ca" stroke-width="1.51"/><path d="M633,645L689,729L713,582Z" fill="#33b09f" stroke="#33b09f" stroke-width="1.51"/><path d="M689,729L639,849L771,790Z" fill="#38a0a2" stroke="#38a0a2" stroke-width="1.51"/><path d="M699,965L691,1082L772,1024Z" fill="#368b9e" stroke="#368b9e" stroke-width="1.51"/><path d="M599,0L751,58L756,5Z" fill="#72dbbf" stroke="#72dbbf" stroke-width="1.51"/><path d="M713,-76L599,0L756,5Z" fill="#7fddc4" stroke="#7fddc4" stroke-width="1.51"/><path d="M599,0L699,111L751,58Z" fill="#69dabd" stroke="#69dabd" stroke-width="1.51"/><path d="M587,394L630,436L690,317Z" fill="#38c8a7" stroke="#38c8a7" stroke-width="1.51"/><path d="M592,994L691,1082L699,965Z" fill="#398ea1" stroke="#398ea1" stroke-width="1.51"/><path d="M560,516L633,645L713,582Z" fill="#30ba9e" stroke="#30ba9e" stroke-width="1.51"/><path d="M630,436L560,516L713,582Z" fill="#2ec09f" stroke="#2ec09f" stroke-width="1.51"/><path d="M645,-133L599,0L713,-76Z" fill="#8be1c9" stroke="#8be1c9" stroke-width="1.51"/><path d="M525,1099L529,1195L628,1241Z" fill="#38899c" stroke="#38899c" stroke-width="1.51"/><path d="M561,730L639,849L689,729Z" fill="#3aa5a4" stroke="#3aa5a4" stroke-width="1.51"/><path d="M637,205L596,215L690,317Z" fill="#41d2b1" stroke="#41d2b1" stroke-width="1.51"/><path d="M525,1099L628,1241L691,1082Z" fill="#36899c" stroke="#36899c" stroke-width="1.51"/><path d="M639,849L592,994L699,965Z" fill="#3c93a6" stroke="#3c93a6" stroke-width="1.51"/><path d="M540,108L637,205L699,111Z" fill="#50d9b9" stroke="#50d9b9" stroke-width="1.51"/><path d="M599,0L540,108L699,111Z" fill="#67ddbf" stroke="#67ddbf" stroke-width="1.51"/><path d="M560,516L583,639L633,645Z" fill="#34b9a1" stroke="#34b9a1" stroke-width="1.51"/><path d="M633,645L561,730L689,729Z" fill="#38aca2" stroke="#38aca2" stroke-width="1.51"/><path d="M596,215L544,340L690,317Z" fill="#3fd0af" stroke="#3fd0af" stroke-width="1.51"/><path d="M592,994L525,1099L691,1082Z" fill="#398ea1" stroke="#398ea1" stroke-width="1.51"/><path d="M544,340L587,394L690,317Z" fill="#3bccab" stroke="#3bccab" stroke-width="1.51"/><path d="M-39,-187L254,-136L351,-160Z" fill="#c5f5e6" stroke="#c5f5e6" stroke-width="1.51"/><path d="M529,1195L449,1231L628,1241Z" fill="#37889b" stroke="#37889b" stroke-width="1.51"/><path d="M583,639L561,730L633,645Z" fill="#38b1a3" stroke="#38b1a3" stroke-width="1.51"/><path d="M540,108L596,215L637,205Z" fill="#47d9b8" stroke="#47d9b8" stroke-width="1.51"/><path d="M551,873L592,994L639,849Z" fill="#3e97a9" stroke="#3e97a9" stroke-width="1.51"/><path d="M561,730L551,873L639,849Z" fill="#3da1a7" stroke="#3da1a7" stroke-width="1.51"/><path d="M524,-181L599,0L645,-133Z" fill="#95e5cf" stroke="#95e5cf" stroke-width="1.51"/><path d="M524,-181L465,-156L599,0Z" fill="#99e8d2" stroke="#99e8d2" stroke-width="1.51"/><path d="M587,394L560,516L630,436Z" fill="#35c6a5" stroke="#35c6a5" stroke-width="1.51"/><path d="M351,-160L465,-156L524,-181Z" fill="#a8edda" stroke="#a8edda" stroke-width="1.51"/><path d="M445,766L551,873L561,730Z" fill="#3fa7a9" stroke="#3fa7a9" stroke-width="1.51"/><path d="M560,516L460,569L583,639Z" fill="#34bfa2" stroke="#34bfa2" stroke-width="1.51"/><path d="M458,417L560,516L587,394Z" fill="#38c9a8" stroke="#38c9a8" stroke-width="1.51"/><path d="M551,873L470,1033L592,994Z" fill="#3e96a9" stroke="#3e96a9" stroke-width="1.51"/><path d="M470,1033L525,1099L592,994Z" fill="#3c92a5" stroke="#3c92a5" stroke-width="1.51"/><path d="M478,209L544,340L596,215Z" fill="#44d6b5" stroke="#44d6b5" stroke-width="1.51"/><path d="M540,108L478,209L596,215Z" fill="#4adbba" stroke="#4adbba" stroke-width="1.51"/><path d="M465,-156L411,-4L599,0Z" fill="#8ce7ce" stroke="#8ce7ce" stroke-width="1.51"/><path d="M469,106L540,108L599,0Z" fill="#6ae0c2" stroke="#6ae0c2" stroke-width="1.51"/><path d="M411,-4L469,106L599,0Z" fill="#76e4c7" stroke="#76e4c7" stroke-width="1.51"/><path d="M438,894L470,1033L551,873Z" fill="#419aad" stroke="#419aad" stroke-width="1.51"/><path d="M460,569L455,631L583,639Z" fill="#38bca5" stroke="#38bca5" stroke-width="1.51"/><path d="M455,631L561,730L583,639Z" fill="#3ab4a5" stroke="#3ab4a5" stroke-width="1.51"/><path d="M544,340L458,417L587,394Z" fill="#3ccdac" stroke="#3ccdac" stroke-width="1.51"/><path d="M469,106L478,209L540,108Z" fill="#55dfbf" stroke="#55dfbf" stroke-width="1.51"/><path d="M478,209L465,336L544,340Z" fill="#44d5b4" stroke="#44d5b4" stroke-width="1.51"/><path d="M445,766L438,894L551,873Z" fill="#42a3ad" stroke="#42a3ad" stroke-width="1.51"/><path d="M458,417L460,569L560,516Z" fill="#36c7a6" stroke="#36c7a6" stroke-width="1.51"/><path d="M455,631L445,766L561,730Z" fill="#3db2a9" stroke="#3db2a9" stroke-width="1.51"/><path d="M465,336L458,417L544,340Z" fill="#40d1b0" stroke="#40d1b0" stroke-width="1.51"/><path d="M525,1099L454,1124L529,1195Z" fill="#3a8ea1" stroke="#3a8ea1" stroke-width="1.51"/><path d="M319,1205L217,1252L449,1231Z" fill="#478fa5" stroke="#478fa5" stroke-width="1.51"/><path d="M-10,1238L-146,1242L69,1250Z" fill="#7c96b6" stroke="#7c96b6" stroke-width="1.51"/><path d="M454,1124L449,1231L529,1195Z" fill="#3a8da0" stroke="#3a8da0" stroke-width="1.51"/><path d="M-39,-187L125,-127L254,-136Z" fill="#cdf6e9" stroke="#cdf6e9" stroke-width="1.51"/><path d="M470,1033L454,1124L525,1099Z" fill="#3d91a5" stroke="#3d91a5" stroke-width="1.51"/><path d="M351,-160L320,-59L411,-4Z" fill="#99edd7" stroke="#99edd7" stroke-width="1.51"/><path d="M366,694L445,766L455,631Z" fill="#40b6ab" stroke="#40b6ab" stroke-width="1.51"/><path d="M458,417L347,432L460,569Z" fill="#3bccab" stroke="#3bccab" stroke-width="1.51"/><path d="M347,432L312,533L460,569Z" fill="#3eccab" stroke="#3eccab" stroke-width="1.51"/><path d="M351,-160L411,-4L465,-156Z" fill="#9cedd7" stroke="#9cedd7" stroke-width="1.51"/><path d="M362,58L292,171L469,106Z" fill="#65e6c7" stroke="#65e6c7" stroke-width="1.51"/><path d="M411,-4L362,58L469,106Z" fill="#74e6c9" stroke="#74e6c9" stroke-width="1.51"/><path d="M341,1032L454,1124L470,1033Z" fill="#4095a9" stroke="#4095a9" stroke-width="1.51"/><path d="M438,894L341,1032L470,1033Z" fill="#429aad" stroke="#429aad" stroke-width="1.51"/><path d="M306,266L465,336L478,209Z" fill="#48dab9" stroke="#48dab9" stroke-width="1.51"/><path d="M469,106L292,171L478,209Z" fill="#51e1c1" stroke="#51e1c1" stroke-width="1.51"/><path d="M292,171L306,266L478,209Z" fill="#53e0c0" stroke="#53e0c0" stroke-width="1.51"/><path d="M335,898L341,1032L438,894Z" fill="#489eb1" stroke="#489eb1" stroke-width="1.51"/><path d="M303,798L438,894L445,766Z" fill="#44a9af" stroke="#44a9af" stroke-width="1.51"/><path d="M319,1205L449,1231L454,1124Z" fill="#3d8fa3" stroke="#3d8fa3" stroke-width="1.51"/><path d="M347,432L458,417L465,336Z" fill="#40d2b0" stroke="#40d2b0" stroke-width="1.51"/><path d="M303,798L335,898L438,894Z" fill="#4aa5b3" stroke="#4aa5b3" stroke-width="1.51"/><path d="M319,1137L319,1205L454,1124Z" fill="#4392a7" stroke="#4392a7" stroke-width="1.51"/><path d="M306,266L347,432L465,336Z" fill="#48d7b6" stroke="#48d7b6" stroke-width="1.51"/><path d="M312,533L455,631L460,569Z" fill="#3ac4a8" stroke="#3ac4a8" stroke-width="1.51"/><path d="M341,1032L319,1137L454,1124Z" fill="#4395a9" stroke="#4395a9" stroke-width="1.51"/><path d="M312,533L366,694L455,631Z" fill="#3fc0ab" stroke="#3fc0ab" stroke-width="1.51"/><path d="M366,694L303,798L445,766Z" fill="#46b1af" stroke="#46b1af" stroke-width="1.51"/><path d="M320,-59L362,58L411,-4Z" fill="#87ebd0" stroke="#87ebd0" stroke-width="1.51"/><path d="M335,898L239,964L341,1032Z" fill="#539eb4" stroke="#539eb4" stroke-width="1.51"/><path d="M306,266L238,303L347,432Z" fill="#5bdabb" stroke="#5bdabb" stroke-width="1.51"/><path d="M254,-136L320,-59L351,-160Z" fill="#abf0dd" stroke="#abf0dd" stroke-width="1.51"/><path d="M236,100L292,171L362,58Z" fill="#75e8cb" stroke="#75e8cb" stroke-width="1.51"/><path d="M320,-59L245,-47L362,58Z" fill="#93edd4" stroke="#93edd4" stroke-width="1.51"/><path d="M245,-47L236,100L362,58Z" fill="#8becd2" stroke="#8becd2" stroke-width="1.51"/><path d="M312,533L179,655L366,694Z" fill="#54c2b0" stroke="#54c2b0" stroke-width="1.51"/><path d="M179,655L303,798L366,694Z" fill="#57b8b3" stroke="#57b8b3" stroke-width="1.51"/><path d="M238,303L209,441L347,432Z" fill="#5ed7b8" stroke="#5ed7b8" stroke-width="1.51"/><path d="M250,516L312,533L347,432Z" fill="#50cfb0" stroke="#50cfb0" stroke-width="1.51"/><path d="M250,516L179,655L312,533Z" fill="#5acab0" stroke="#5acab0" stroke-width="1.51"/><path d="M175,1133L319,1137L341,1032Z" fill="#5497ae" stroke="#5497ae" stroke-width="1.51"/><path d="M209,441L250,516L347,432Z" fill="#59d1b3" stroke="#59d1b3" stroke-width="1.51"/><path d="M303,798L214,812L335,898Z" fill="#58aab5" stroke="#58aab5" stroke-width="1.51"/><path d="M239,964L175,1133L341,1032Z" fill="#5a9bb2" stroke="#5a9bb2" stroke-width="1.51"/><path d="M179,655L214,812L303,798Z" fill="#61b4b6" stroke="#61b4b6" stroke-width="1.51"/><path d="M214,812L239,964L335,898Z" fill="#5ca5b8" stroke="#5ca5b8" stroke-width="1.51"/><path d="M214,812L177,922L239,964Z" fill="#64a5bb" stroke="#64a5bb" stroke-width="1.51"/><path d="M292,171L207,184L306,266Z" fill="#67e3c5" stroke="#67e3c5" stroke-width="1.51"/><path d="M175,1133L217,1252L319,1205Z" fill="#5893aa" stroke="#5893aa" stroke-width="1.51"/><path d="M175,1133L319,1205L319,1137Z" fill="#5394ab" stroke="#5394ab" stroke-width="1.51"/><path d="M254,-136L245,-47L320,-59Z" fill="#a7f0dc" stroke="#a7f0dc" stroke-width="1.51"/><path d="M207,184L238,303L306,266Z" fill="#68e1c3" stroke="#68e1c3" stroke-width="1.51"/><path d="M236,100L207,184L292,171Z" fill="#73e8ca" stroke="#73e8ca" stroke-width="1.51"/><path d="M68,987L76,1093L175,1133Z" fill="#6f9db8" stroke="#6f9db8" stroke-width="1.51"/><path d="M179,655L125,801L214,812Z" fill="#6bb6b9" stroke="#6bb6b9" stroke-width="1.51"/><path d="M136,343L209,441L238,303Z" fill="#6ddbbe" stroke="#6ddbbe" stroke-width="1.51"/><path d="M177,922L68,987L239,964Z" fill="#6aa2bb" stroke="#6aa2bb" stroke-width="1.51"/><path d="M68,987L175,1133L239,964Z" fill="#689eb7" stroke="#689eb7" stroke-width="1.51"/><path d="M125,111L236,100L245,-47Z" fill="#93edd4" stroke="#93edd4" stroke-width="1.51"/><path d="M85,-62L125,111L245,-47Z" fill="#a7f0db" stroke="#a7f0db" stroke-width="1.51"/><path d="M120,520L179,655L250,516Z" fill="#66ccb3" stroke="#66ccb3" stroke-width="1.51"/><path d="M125,-127L245,-47L254,-136Z" fill="#b6f3e1" stroke="#b6f3e1" stroke-width="1.51"/><path d="M207,184L128,188L238,303Z" fill="#75e4c8" stroke="#75e4c8" stroke-width="1.51"/><path d="M209,441L120,520L250,516Z" fill="#66d1b5" stroke="#66d1b5" stroke-width="1.51"/><path d="M128,188L136,343L238,303Z" fill="#76e2c5" stroke="#76e2c5" stroke-width="1.51"/><path d="M125,-127L85,-62L245,-47Z" fill="#b8f3e2" stroke="#b8f3e2" stroke-width="1.51"/><path d="M125,111L207,184L236,100Z" fill="#82eacf" stroke="#82eacf" stroke-width="1.51"/><path d="M113,845L177,922L214,812Z" fill="#6baabc" stroke="#6baabc" stroke-width="1.51"/><path d="M125,111L128,188L207,184Z" fill="#80e9ce" stroke="#80e9ce" stroke-width="1.51"/><path d="M125,801L113,845L214,812Z" fill="#6eafbc" stroke="#6eafbc" stroke-width="1.51"/><path d="M175,1133L69,1250L217,1252Z" fill="#6394ae" stroke="#6394ae" stroke-width="1.51"/><path d="M82,662L125,801L179,655Z" fill="#71bdba" stroke="#71bdba" stroke-width="1.51"/><path d="M136,343L60,442L209,441Z" fill="#75d9be" stroke="#75d9be" stroke-width="1.51"/><path d="M60,442L120,520L209,441Z" fill="#72d5ba" stroke="#72d5ba" stroke-width="1.51"/><path d="M76,1093L69,1250L175,1133Z" fill="#6c98b3" stroke="#6c98b3" stroke-width="1.51"/><path d="M120,520L82,662L179,655Z" fill="#70c8b7" stroke="#70c8b7" stroke-width="1.51"/><path d="M113,845L68,987L177,922Z" fill="#72a5c0" stroke="#72a5c0" stroke-width="1.51"/><path d="M-38,556L82,662L120,520Z" fill="#7bcdba" stroke="#7bcdba" stroke-width="1.51"/><path d="M82,662L14,749L125,801Z" fill="#7ababe" stroke="#7ababe" stroke-width="1.51"/><path d="M85,-62L21,-51L125,111Z" fill="#b2f2df" stroke="#b2f2df" stroke-width="1.51"/><path d="M21,-51L-26,112L125,111Z" fill="#aaf1dc" stroke="#aaf1dc" stroke-width="1.51"/><path d="M125,111L13,186L128,188Z" fill="#8bebd2" stroke="#8bebd2" stroke-width="1.51"/><path d="M-27,391L60,442L136,343Z" fill="#83dcc3" stroke="#83dcc3" stroke-width="1.51"/><path d="M-45,339L-27,391L136,343Z" fill="#8ae0c8" stroke="#8ae0c8" stroke-width="1.51"/><path d="M128,188L13,186L136,343Z" fill="#85e6cc" stroke="#85e6cc" stroke-width="1.51"/><path d="M13,186L-45,339L136,343Z" fill="#8ce4cc" stroke="#8ce4cc" stroke-width="1.51"/><path d="M-49,882L68,987L113,845Z" fill="#7da8c4" stroke="#7da8c4" stroke-width="1.51"/><path d="M-10,1238L69,1250L76,1093Z" fill="#7397b5" stroke="#7397b5" stroke-width="1.51"/><path d="M14,749L113,845L125,801Z" fill="#78b3bf" stroke="#78b3bf" stroke-width="1.51"/><path d="M-26,112L13,186L125,111Z" fill="#99eed7" stroke="#99eed7" stroke-width="1.51"/><path d="M21,-51L85,-62L125,-127Z" fill="#c3f5e6" stroke="#c3f5e6" stroke-width="1.51"/><path d="M-39,-187L21,-51L125,-127Z" fill="#d1f7ec" stroke="#d1f7ec" stroke-width="1.51"/><path d="M60,442L-38,556L120,520Z" fill="#7ed5bc" stroke="#7ed5bc" stroke-width="1.51"/><path d="M14,749L-49,882L113,845Z" fill="#80b1c2" stroke="#80b1c2" stroke-width="1.51"/><path d="M-49,882L10,1007L68,987Z" fill="#80a5c3" stroke="#80a5c3" stroke-width="1.51"/><path d="M68,987L10,1007L76,1093Z" fill="#78a0bd" stroke="#78a0bd" stroke-width="1.51"/><path d="M-33,1103L-10,1238L76,1093Z" fill="#799ab9" stroke="#799ab9" stroke-width="1.51"/><path d="M-46,681L14,749L82,662Z" fill="#82c0c0" stroke="#82c0c0" stroke-width="1.51"/><path d="M-38,556L-46,681L82,662Z" fill="#84c8bf" stroke="#84c8bf" stroke-width="1.51"/><path d="M10,1007L-33,1103L76,1093Z" fill="#7b9fbd" stroke="#7b9fbd" stroke-width="1.51"/><path d="M-96,-23L-26,112L21,-51Z" fill="#bff4e4" stroke="#bff4e4" stroke-width="1.51"/><path d="M-27,391L-38,556L60,442Z" fill="#88d9c1" stroke="#88d9c1" stroke-width="1.51"/><path d="M-96,-23L-126,36L-26,112Z" fill="#bff4e4" stroke="#bff4e4" stroke-width="1.51"/><path d="M-49,882L-137,986L10,1007Z" fill="#89a6c7" stroke="#89a6c7" stroke-width="1.51"/><path d="M-138,308L-45,339L13,186Z" fill="#9ae7d2" stroke="#9ae7d2" stroke-width="1.51"/><path d="M-150,160L-138,308L13,186Z" fill="#a3ecd7" stroke="#a3ecd7" stroke-width="1.51"/><path d="M-109,736L-49,882L14,749Z" fill="#8bb7c5" stroke="#8bb7c5" stroke-width="1.51"/><path d="M-39,-187L-96,-23L21,-51Z" fill="#d4f8ed" stroke="#d4f8ed" stroke-width="1.51"/><path d="M-91,574L-46,681L-38,556Z" fill="#8ccdc1" stroke="#8ccdc1" stroke-width="1.51"/><path d="M-46,681L-109,736L14,749Z" fill="#8bbfc4" stroke="#8bbfc4" stroke-width="1.51"/><path d="M-172,432L-38,556L-27,391Z" fill="#94dbc6" stroke="#94dbc6" stroke-width="1.51"/><path d="M-137,986L-33,1103L10,1007Z" fill="#85a2c2" stroke="#85a2c2" stroke-width="1.51"/><path d="M-26,112L-150,160L13,186Z" fill="#a3efda" stroke="#a3efda" stroke-width="1.51"/><path d="M-33,1103L-146,1242L-10,1238Z" fill="#8299ba" stroke="#8299ba" stroke-width="1.51"/><path d="M-133,-187L-96,-23L-39,-187Z" fill="#e4fbf3" stroke="#e4fbf3" stroke-width="1.51"/><path d="M-172,432L-91,574L-38,556Z" fill="#93d7c2" stroke="#93d7c2" stroke-width="1.51"/><path d="M-137,986L-175,1092L-33,1103Z" fill="#8da2c4" stroke="#8da2c4" stroke-width="1.51"/><path d="M-175,1092L-146,1242L-33,1103Z" fill="#8a9dc0" stroke="#8a9dc0" stroke-width="1.51"/><path d="M-126,36L-150,160L-26,112Z" fill="#b4f2e0" stroke="#b4f2e0" stroke-width="1.51"/><path d="M-45,339L-172,432L-27,391Z" fill="#97e0ca" stroke="#97e0ca" stroke-width="1.51"/><path d="M-109,736L-171,894L-49,882Z" fill="#92b3ca" stroke="#92b3ca" stroke-width="1.51"/><path d="M-138,308L-172,432L-45,339Z" fill="#9fe3ce" stroke="#9fe3ce" stroke-width="1.51"/><path d="M-171,894L-137,986L-49,882Z" fill="#92a9cb" stroke="#92a9cb" stroke-width="1.51"/><path d="M-91,574L-163,682L-46,681Z" fill="#92c9c4" stroke="#92c9c4" stroke-width="1.51"/><path d="M-163,682L-109,736L-46,681Z" fill="#93c3c6" stroke="#93c3c6" stroke-width="1.51"/><path d="M-133,-187L-126,36L-96,-23Z" fill="#d8f9ee" stroke="#d8f9ee" stroke-width="1.51"/><path d="M-172,432L-163,682L-91,574Z" fill="#98d4c4" stroke="#98d4c4" stroke-width="1.51"/><path d="M-163,682L-171,894L-109,736Z" fill="#98bcca" stroke="#98bcca" stroke-width="1.51"/><path d="M-133,-187L-150,160L-126,36Z" fill="#cef7ea" stroke="#cef7ea" stroke-width="1.51"/><path d="M-172,432L-150,160L-133,-187Z" fill="#b5f2e1" stroke="#b5f2e1" stroke-width="1.51"/><path d="M-150,160L-172,432L-138,308Z" fill="#a7e7d4" stroke="#a7e7d4" stroke-width="1.51"/><path d="M-171,894L-175,1092L-137,986Z" fill="#95a6ca" stroke="#95a6ca" stroke-width="1.51"/><path d="M-172,432L-171,894L-163,682Z" fill="#9cc8c8" stroke="#9cc8c8" stroke-width="1.51"/><path d="M-172,432L-175,1092L-171,894Z" fill="#9bb8cc" stroke="#9bb8cc" stroke-width="1.51"/></svg>